<svg width="17" height="23" viewBox="0 0 17 23" fill="none" xmlns="http://www.w3.org/2000/svg">
<mask id="mask0_5_208" style="mask-type:luminance" maskUnits="userSpaceOnUse" x="0" y="0" width="17" height="24">
<path d="M16.434 0H0V23.007H16.434V0Z" fill="white"/>
</mask>
<g mask="url(#mask0_5_208)">
<path d="M0.820313 20.5431V16.4491C0.820326 15.7347 1.05314 15.0398 1.4835 14.4696C1.91386 13.8994 2.51831 13.485 3.20531 13.2891L6.57331 12.3281L8.21531 13.9711L9.86031 12.3281L13.2263 13.2901C13.9131 13.4862 14.5174 13.9007 14.9475 14.4709C15.3777 15.0411 15.6104 15.7359 15.6103 16.4501V20.5441C15.6104 20.7599 15.568 20.9736 15.4855 21.173C15.403 21.3724 15.282 21.5536 15.1294 21.7062C14.9768 21.8588 14.7956 21.9798 14.5962 22.0623C14.3968 22.1448 14.1831 22.1873 13.9673 22.1871H2.46331C2.24747 22.1871 2.03374 22.1446 1.83433 22.062C1.63493 21.9793 1.45376 21.8582 1.30118 21.7055C1.1486 21.5529 1.0276 21.3716 0.945092 21.1722C0.862582 20.9727 0.820181 20.759 0.820313 20.5431Z" fill="#4ABCEE"/>
<path d="M0.820313 20.5431V16.4491C0.820326 15.7347 1.05314 15.0398 1.4835 14.4696C1.91386 13.8994 2.51831 13.485 3.20531 13.2891L6.57331 12.3281L8.21531 13.9711L9.86031 12.3281L13.2263 13.2901C13.9131 13.4862 14.5174 13.9007 14.9475 14.4709C15.3777 15.0411 15.6104 15.7359 15.6103 16.4501V20.5441C15.6104 20.7599 15.568 20.9736 15.4855 21.173C15.403 21.3724 15.282 21.5536 15.1294 21.7062C14.9768 21.8588 14.7956 21.9798 14.5962 22.0623C14.3968 22.1448 14.1831 22.1873 13.9673 22.1871H2.46331C2.24747 22.1871 2.03374 22.1446 1.83433 22.062C1.63493 21.9793 1.45376 21.8582 1.30118 21.7055C1.1486 21.5529 1.0276 21.3716 0.945092 21.1722C0.862582 20.9727 0.820181 20.759 0.820313 20.5431Z" stroke="#323233" stroke-width="1.573" stroke-linecap="round" stroke-linejoin="round"/>
<path d="M12.3234 4.92931C12.3232 5.74176 12.0821 6.5359 11.6306 7.21132C11.1791 7.88675 10.5375 8.41313 9.78679 8.7239C9.03614 9.03467 8.21019 9.11588 7.41338 8.95726C6.61657 8.79864 5.88469 8.40731 5.31028 7.83275C4.73586 7.2582 4.34471 6.52622 4.18628 5.72938C4.02786 4.93253 4.10927 4.1066 4.42022 3.35602C4.73118 2.60544 5.25771 1.96391 5.93325 1.51257C6.60878 1.06122 7.40298 0.820313 8.21542 0.820313C8.75498 0.820312 9.28925 0.926602 9.78772 1.13311C10.2862 1.33962 10.7391 1.6423 11.1206 2.02387C11.502 2.40544 11.8046 2.85842 12.011 3.35694C12.2174 3.85546 12.3236 4.38976 12.3234 4.92931Z" fill="#FE9E2C"/>
<path d="M12.3234 4.92931C12.3232 5.74176 12.0821 6.5359 11.6306 7.21132C11.1791 7.88675 10.5375 8.41313 9.78679 8.7239C9.03614 9.03467 8.21019 9.11588 7.41338 8.95726C6.61657 8.79864 5.88469 8.40731 5.31028 7.83275C4.73586 7.2582 4.34471 6.52622 4.18628 5.72938C4.02786 4.93253 4.10927 4.1066 4.42022 3.35602C4.73118 2.60544 5.25771 1.96391 5.93325 1.51257C6.60878 1.06122 7.40298 0.820313 8.21542 0.820313C8.75498 0.820312 9.28925 0.926602 9.78772 1.13311C10.2862 1.33962 10.7391 1.6423 11.1206 2.02387C11.502 2.40544 11.8046 2.85842 12.011 3.35694C12.2174 3.85546 12.3236 4.38976 12.3234 4.92931Z" stroke="#323233" stroke-width="1.573" stroke-linecap="round" stroke-linejoin="round"/>
<path d="M4.1073 22.1853V18.8983" stroke="#323233" stroke-width="1.573" stroke-linecap="round" stroke-linejoin="round"/>
<path d="M12.3243 18.8983V22.1853" stroke="#323233" stroke-width="1.573" stroke-linecap="round" stroke-linejoin="round"/>
</g>
</svg>
