<svg width="15" height="25" viewBox="0 0 15 25" fill="none" xmlns="http://www.w3.org/2000/svg">
<path d="M6.80176 0.528336C8.51252 0.373158 10.2713 0.864731 11.6621 1.87697L11.668 1.88185C13.657 3.28659 14.7616 5.84514 14.4463 8.26076V8.26759C14.3556 9.03551 14.1216 9.7898 13.7773 10.4932H13.7764L13.7725 10.502C13.5284 11.0285 13.1911 11.5087 12.8154 12.0137C12.4484 12.5071 12.0347 13.0369 11.6982 13.6133L11.6963 13.6162C11.3092 14.2913 10.9842 15.0642 10.9072 15.9043C10.8731 16.1093 10.8782 16.3147 10.8779 16.4395C10.8776 16.5616 10.8717 16.6402 10.8584 16.7002L10.8398 16.6992H10.8184C8.62577 16.7069 6.43231 16.7048 4.23828 16.6992H4.22656L4.21484 16.7002C4.19303 16.7011 4.17104 16.6993 4.15137 16.6963C4.14975 16.6961 4.148 16.6946 4.14648 16.6944C4.12972 16.6199 4.12538 16.5246 4.12695 16.375C4.12856 16.2228 4.13566 15.9831 4.08496 15.7412H4.08594C3.85692 14.0908 2.74166 12.787 1.91602 11.669L1.91113 11.6631L1.74316 11.4317C0.924525 10.2599 0.466973 8.8366 0.501953 7.41701V7.40236C0.491993 5.58911 1.25222 3.78083 2.55469 2.51955H2.55566L2.56445 2.51076C3.67288 1.37924 5.21069 0.690326 6.80078 0.527359L6.80176 0.528336Z" fill="#FED100" stroke="#323233"/>
<path d="M4.05335 18.5451C6.32388 18.5105 8.59797 18.5385 10.87 18.5324C11.252 18.5319 11.4183 18.9628 11.3693 19.2887C11.4076 19.6238 11.2867 20.096 10.8746 20.1001C8.62755 20.1052 6.37998 20.1042 4.13291 20.1006C3.74174 20.1052 3.57191 19.6717 3.60557 19.3387C3.56324 19.0174 3.68615 18.6007 4.05335 18.5451Z" fill="#306FDC"/>
<path d="M4.00549 21.0561C6.275 21.0138 8.5496 21.0505 10.8211 21.0398C11.4913 21.0525 11.5469 22.0465 11.1455 22.4214C10.9879 22.5632 10.7722 22.6213 10.5636 22.6106C8.47106 22.606 6.37802 22.6167 4.28548 22.604C3.51334 22.6228 3.32311 21.3065 4.00549 21.0561Z" fill="#306FDC"/>
<path d="M5.48828 23.5252C6.81173 23.5252 8.13519 23.5206 9.45915 23.5262C9.05115 24.3055 8.19282 24.8833 7.29318 24.7915C6.51287 24.7405 5.84477 24.1994 5.48828 23.5252Z" fill="#306FDC"/>
</svg>
