<svg width="24" height="24" viewBox="0 0 24 24" fill="none" xmlns="http://www.w3.org/2000/svg">
<rect x="0.75" y="2.93182" width="22.5" height="20.3182" rx="2.25" fill="white" stroke="#323233" stroke-width="1.5"/>
<path d="M1.45312 4.63672C1.45312 4.08444 1.90084 3.63672 2.45312 3.63672H21.544C22.0963 3.63672 22.544 4.08443 22.544 4.63672V7.27308H1.45312V4.63672Z" fill="#FD534D"/>
<rect x="5.6918" y="0.6" width="2.43636" height="4.61818" rx="1.21818" fill="#CCCCCC" stroke="#323233" stroke-width="1.2"/>
<rect x="15.8734" y="0.6" width="2.43636" height="4.61818" rx="1.21818" fill="#CCCCCC" stroke="#323233" stroke-width="1.2"/>
<rect x="1.45312" y="7.27344" width="21.0909" height="1.09091" fill="#323233"/>
<rect x="3.63672" y="9.23633" width="3.63636" height="3.63636" rx="1" fill="#D9D9D9"/>
<rect x="3.63672" y="13.6016" width="3.63636" height="3.63636" rx="1" fill="#D9D9D9"/>
<rect x="3.63672" y="17.9648" width="3.63636" height="3.63636" rx="1" fill="#D9D9D9"/>
<rect x="8" y="9.2365" width="3.63636" height="3.63636" rx="1" fill="#D9D9D9"/>
<rect x="8" y="13.6016" width="3.63636" height="3.63636" rx="1" fill="#D9D9D9"/>
<rect x="8" y="17.9629" width="3.63636" height="3.63636" rx="1" fill="#D9D9D9"/>
<rect x="12.3633" y="9.23633" width="3.63636" height="3.63636" rx="1" fill="#D9D9D9"/>
<rect x="12.3633" y="13.6016" width="3.63636" height="3.63636" rx="1" fill="#D9D9D9"/>
<rect x="16.7266" y="9.23633" width="3.63636" height="3.63636" rx="1" fill="#D9D9D9"/>
<rect x="16.7266" y="13.6016" width="3.63636" height="3.63636" rx="1" fill="#FD534D"/>
</svg>
