<svg width="18" height="20" viewBox="0 0 18 20" fill="none" xmlns="http://www.w3.org/2000/svg">
<g clip-path="url(#clip0_5_218)">
<path d="M17.3358 12.3513C17.2421 12.1873 17.1672 12.0973 17.1672 12.0973C17.1672 12.0973 15.0183 8.66037 10.702 9.29371C7.78487 9.71809 6.23811 12.4072 5.65723 13.8636C5.63545 12.957 5.54945 11.5699 5.5338 11.3964L5.47765 10.7823C5.27466 8.5735 5.05183 7.38058 4.86127 6.88543C4.73315 6.87896 4.89515 6.80504 4.92323 6.88543C5.46345 6.91118 6.66974 6.81152 7.25691 5.86293L9.21835 5.40632C9.21835 5.40632 10.1147 5.11698 10.1177 4.73113C10.1232 4.35824 9.88733 3.96774 9.5275 3.85496L8.49677 3.55747L8.4624 3.68935C8.61552 1.76991 7.68466 0.689604 7.25998 0.390625L4.57696 0.879289C4.57696 0.879289 3.74614 1.13641 1.90024 2.89191C1.74098 3.04306 1.64723 3.24886 1.63481 3.4706C1.563 4.76319 1.62545 6.73711 1.62545 6.73711C0.157437 11.5764 0.40431 18.4697 0.40431 18.4697C0.679099 20.0259 1.87845 19.6465 1.87845 19.6465C8.30621 19.685 13.2411 18.9456 16.758 15.83C17.7357 14.962 17.998 13.4894 17.3358 12.3513Z" fill="#FFED7F"/>
<path d="M9.21574 15.9763C10.5205 15.9763 12.3612 15.6745 13.9743 14.2991C14.1108 14.1829 14.1295 13.9749 14.0169 13.8346C13.9036 13.6941 13.7016 13.6743 13.5654 13.7909C11.0071 15.9724 7.69738 15.1612 7.6635 15.1527C7.49375 15.1089 7.31787 15.216 7.27528 15.3934C7.23236 15.5701 7.33659 15.749 7.5086 15.7932C7.57152 15.8095 8.24534 15.9763 9.2159 15.9763H9.21574Z" fill="black"/>
<path d="M17.5833 12.1485C17.4975 12.0005 17.4255 11.9035 17.3973 11.867C17.2148 11.5916 14.9303 8.29467 10.6134 8.92667C6.11225 9.58542 5.10572 14.5495 5.09636 14.5995C5.06199 14.778 5.17462 14.9514 5.34808 14.987C5.52024 15.0223 5.69063 14.9067 5.725 14.728C5.76131 14.5423 6.6578 10.1723 10.7036 9.58011C14.7683 8.98514 16.7862 12.1093 16.8701 12.2423C16.8768 12.2528 16.8851 12.2644 16.8927 12.2741C16.8934 12.2749 16.9544 12.3518 17.0333 12.4873C17.615 13.4856 17.3992 14.7752 16.521 15.5539C13.4683 18.2598 9.20173 19.3423 1.81762 19.3014C1.7797 19.2987 1.75308 19.306 1.7221 19.3157C1.71871 19.317 1.38357 19.4099 1.10249 19.2335C0.882404 19.0954 0.732666 18.8204 0.657636 18.4158C0.64392 17.9663 0.472884 11.3898 1.8678 6.79213C1.87877 6.75675 1.88345 6.71971 1.88216 6.68284C1.88152 6.66324 1.82085 4.70194 1.89184 3.43544C1.89943 3.29907 1.95703 3.17317 2.05401 3.08098C3.68208 1.53493 4.49709 1.1823 4.60261 1.14061L7.12928 0.680515C7.62335 1.10257 8.33638 2.23753 8.04255 4.04851C7.96139 4.1191 7.86296 4.18222 7.7555 4.17375C7.62464 4.16362 7.52444 4.03472 7.52411 4.03472C7.51217 4.01761 7.49523 4.00748 7.48087 3.99353V3.23363C7.48087 3.19061 7.4728 3.14808 7.45683 3.10822L7.17688 2.40678C7.10991 2.23803 6.92177 2.15747 6.75864 2.2269C6.59487 2.296 6.51661 2.489 6.5839 2.65743L6.83964 3.29857V4.12641C6.74283 4.26361 6.64618 4.34201 6.56792 4.3445C6.43577 4.35347 6.30782 4.20182 6.25699 4.13006C6.24473 4.11229 6.22762 4.10166 6.21278 4.08721V3.23363C6.21278 3.20389 6.20875 3.17416 6.20116 3.14543L6.05368 2.59796C6.03497 2.52903 5.99511 2.46807 5.94009 2.42439L5.82423 2.3327C5.68402 2.22158 5.48297 2.24849 5.3747 2.39333C5.26691 2.53767 5.29305 2.74496 5.43359 2.85608L5.46457 2.8805L5.57171 3.27831V4.12624C5.4749 4.26344 5.37825 4.34184 5.29999 4.34433C5.17785 4.3533 5.03989 4.20165 4.98906 4.1299C4.97422 4.1083 4.95388 4.09452 4.93549 4.07791V3.23346C4.93549 3.18213 4.92387 3.13164 4.90161 3.08563L4.69814 2.66706C4.61859 2.50412 4.42641 2.43768 4.26796 2.51973C4.10951 2.60129 4.04529 2.79944 4.12452 2.96255L4.29426 3.31136V4.12624C4.20229 4.2568 4.10951 4.3347 4.03416 4.3435C3.93831 4.35513 3.82036 4.25065 3.77712 4.20597C3.77405 4.20248 3.76486 4.18388 3.76082 4.14701C3.70628 3.6424 3.44892 3.31634 3.24271 3.13164C3.10927 3.01205 2.90677 3.02617 2.79059 3.16403C2.67409 3.30156 2.68813 3.50985 2.8219 3.62961C2.94211 3.73724 3.09184 3.92692 3.12347 4.22025C3.14315 4.40164 3.21238 4.55793 3.32355 4.67271C3.53428 4.8888 3.77841 5.00441 4.01996 5.00441C4.04884 5.00441 4.07724 5.00275 4.10612 4.99959C4.3004 4.977 4.47853 4.87585 4.64198 4.71158C4.78672 4.84911 5.01149 5.00457 5.29564 5.00457C5.30193 5.00457 5.30822 5.00458 5.31467 5.00424C5.53331 4.99893 5.73323 4.89727 5.91492 4.71606C6.05998 4.85243 6.28248 5.00457 6.56357 5.00457C6.56986 5.00457 6.57615 5.00458 6.58261 5.00424C6.82657 4.99826 7.04908 4.88116 7.24674 4.6566C7.36002 4.73799 7.50911 4.81323 7.69451 4.8305C7.72177 4.83316 7.74872 4.83432 7.77567 4.83432C8.04303 4.83432 8.30362 4.71025 8.55114 4.46475C8.61084 4.40579 8.64069 4.32839 8.64602 4.24965C8.65538 4.22657 8.6678 4.20531 8.672 4.17956C9.04989 1.90483 8.04545 0.518403 7.39261 0.0578095C7.32339 0.00897636 7.23851 -0.00995895 7.15558 0.00498998L4.46643 0.49465C4.45384 0.496976 4.44174 0.499965 4.42948 0.50362C4.33718 0.532521 3.47329 0.835153 1.6198 2.59514C1.39971 2.80393 1.26917 3.08895 1.25223 3.39707C1.18527 4.587 1.23029 6.31061 1.23997 6.64779C-0.212877 11.4906 0.00737355 18.1807 0.0177003 18.4641C0.018023 18.4799 0.0199593 18.4956 0.0227023 18.5111C0.130649 19.1217 0.381879 19.5545 0.769132 19.7974C1.02585 19.9583 1.29354 20.0008 1.50524 20.0008C1.66078 20.0008 1.78648 19.9777 1.85441 19.9616C7.37744 19.9937 13.012 19.5348 16.9395 16.054C18.0551 15.0652 18.3259 13.4223 17.5835 12.1482L17.5833 12.1485Z" fill="black"/>
<path d="M9.37179 4.30472C9.54654 4.35787 9.62189 4.50985 9.61818 4.62878C9.61253 4.80866 9.44375 4.95466 9.16638 5.01944L7.1375 5.49316C7.12427 5.49615 7.11426 5.50495 7.10184 5.5096C7.07522 5.5194 7.04827 5.52837 7.02471 5.54531C6.99777 5.56475 6.97711 5.59049 6.95727 5.61707C6.95162 5.62471 6.94339 5.62903 6.93823 5.63733C6.23375 6.77146 4.82915 6.48626 4.7709 6.47364C4.63907 6.44474 4.4995 6.49972 4.42834 6.61815C4.35702 6.73641 4.36267 6.88374 4.44658 6.99287C4.63101 7.30929 4.84867 9.63301 4.95323 10.7499L5.0118 11.3689C5.02842 11.5392 5.16767 11.6661 5.33048 11.6661C5.34113 11.6661 5.35178 11.6656 5.36275 11.6644C5.53895 11.6461 5.66739 11.4844 5.6498 11.3031L5.59123 10.6866C5.42649 8.92527 5.30483 7.80609 5.16509 7.17275C5.76937 7.18073 6.75428 7.03572 7.3997 6.10872L9.30821 5.66308C9.99075 5.50362 10.2468 5.03522 10.2588 4.65004C10.2728 4.20473 9.98268 3.80243 9.55364 3.67171C9.38324 3.62039 9.20543 3.71972 9.15509 3.89462C9.10507 4.06952 9.20172 4.25306 9.37147 4.30472H9.37179Z" fill="black"/>
</g>
<defs>
<clipPath id="clip0_5_218">
<rect width="18" height="20" fill="white"/>
</clipPath>
</defs>
</svg>
