<svg width="17" height="23" viewBox="0 0 17 23" fill="none" xmlns="http://www.w3.org/2000/svg">
<path d="M16.9991 11.5007C16.9991 13.7692 16.1151 15.9015 14.5102 17.5045C13.0145 18.9981 11.0592 19.8665 8.96202 19.9781V22.5383C8.96202 22.7254 8.84937 22.894 8.67622 22.9655C8.61881 22.9893 8.55894 23.0007 8.49906 23.0007C8.37869 23.0007 8.26017 22.9538 8.17159 22.8653L4.15307 18.8517C4.06634 18.7647 4.01758 18.6473 4.01758 18.5246C4.01758 18.4019 4.06634 18.2844 4.15307 18.1975L8.17159 14.1838C8.304 14.0516 8.50307 14.0121 8.67622 14.0837C8.84937 14.1552 8.96202 14.3238 8.96202 14.5109V17.0396C11.8148 16.8041 14.0639 14.4098 14.0639 11.5007C14.0639 10.5876 13.8457 9.71547 13.4151 8.90842C13.3191 8.72901 13.3521 8.50798 13.4963 8.36401L14.9629 6.89912C15.0623 6.79986 15.2018 6.75084 15.3417 6.76656C15.4815 6.78198 15.6068 6.86028 15.6818 6.97927C16.5435 8.34213 16.9991 9.90536 16.9991 11.5007Z" fill="#9080FF"/>
<path d="M3.58395 14.092C3.67994 14.2717 3.64691 14.4927 3.50278 14.6367L2.03611 16.1016C1.94877 16.1888 1.83086 16.2369 1.70864 16.2369C1.69167 16.2369 1.67469 16.236 1.65741 16.2342C1.51759 16.2187 1.39228 16.1404 1.31728 16.0214C0.455556 14.6586 0 13.0954 0 11.5001C0 9.2315 0.883951 7.0992 2.48889 5.4962C3.98457 4.00263 5.93982 3.13424 8.03704 3.02264V0.462463C8.03704 0.275343 8.14969 0.10672 8.32284 0.0352012C8.49568 -0.0363173 8.69506 0.00314119 8.82747 0.135389L12.846 4.14906C12.9327 4.23599 12.9815 4.35344 12.9815 4.47613C12.9815 4.59883 12.9327 4.71628 12.846 4.80321L8.82747 8.81688C8.69506 8.94913 8.49568 8.98859 8.32284 8.91707C8.14969 8.84555 8.03704 8.67692 8.03704 8.48981V5.96107C5.18426 6.19659 2.93519 8.59092 2.93519 11.5001C2.93519 12.4132 3.1534 13.2852 3.58395 14.092Z" fill="#46AFB8"/>
</svg>
