<svg width="17" height="17" viewBox="0 0 17 17" fill="none" xmlns="http://www.w3.org/2000/svg">
<path d="M2.12102 2.09313C3.48329 0.745757 5.32399 -0.00684984 7.24002 6.26933e-05C9.15742 -0.00790977 10.9998 0.744776 12.363 2.09313C13.035 2.75122 13.5685 3.53716 13.9321 4.40462C14.2957 5.27209 14.482 6.20355 14.48 7.14413C14.4835 8.87518 13.8487 10.5467 12.697 11.8391L16.718 15.8061C16.7639 15.8511 16.8004 15.9048 16.8253 15.964C16.8502 16.0233 16.863 16.0869 16.863 16.1511C16.863 16.2154 16.8502 16.279 16.8253 16.3382C16.8004 16.3975 16.7639 16.4512 16.718 16.4961C16.6246 16.5878 16.4989 16.6391 16.368 16.6391C16.2371 16.6391 16.1115 16.5878 16.018 16.4961L11.998 12.5251C10.6759 13.6658 8.9862 14.2905 7.24002 14.2841C5.32457 14.2922 3.48394 13.541 2.12102 12.1951C1.44828 11.5374 0.914036 10.7516 0.549765 9.8841C0.185494 9.01662 -0.00142797 8.08499 8.21352e-06 7.14413C-0.00142797 6.20327 0.185494 5.27164 0.549765 4.40415C0.914036 3.53667 1.44828 2.75089 2.12102 2.09313ZM2.82102 11.5061C4.0018 12.6622 5.58852 13.3096 7.24102 13.3096C8.89351 13.3096 10.4802 12.6622 11.661 11.5061C12.2401 10.937 12.7 10.2582 13.014 9.50949C13.3281 8.76075 13.4899 7.95698 13.4901 7.14505C13.4903 6.33311 13.3288 5.52927 13.0151 4.78038C12.7014 4.03149 12.2418 3.35255 11.663 2.78313C10.4843 1.62431 8.89594 0.977461 7.24302 0.983127C5.59012 0.977569 4.00178 1.6244 2.82302 2.78313C2.24406 3.3522 1.78416 4.03082 1.47014 4.77944C1.15611 5.52805 0.994245 6.33169 0.993966 7.1435C0.993686 7.95531 1.155 8.75906 1.46851 9.50789C1.78202 10.2567 2.24145 10.9357 2.82002 11.5051L2.82102 11.5061Z" fill="#323233"/>
</svg>
